<?xml version="1.0" encoding="utf-8"?>
<!-- Generator: Adobe Illustrator 27.9.6, SVG Export Plug-In . SVG Version: 9.03 Build 54986)  -->
<svg version="1.1" id="Layer_1" xmlns="http://www.w3.org/2000/svg" xmlns:xlink="http://www.w3.org/1999/xlink" x="0px" y="0px"
	 viewBox="0 0 1200 675" style="enable-background:new 0 0 1200 675;" xml:space="preserve">
<style type="text/css">
	.st0{fill:#FFFFFF;}
	.st1{stroke:#000000;stroke-width:9;stroke-linecap:round;stroke-linejoin:round;stroke-miterlimit:10;}
	.st2{font-family:'ReliefSingleLineOutline-Regular';}
	.st3{font-size:151.8039px;}
</style>
<rect x="0" class="st0" width="1200" height="675"/>
<path d="M717,132.6l39.4-68.7c0.9-1.6,1.3-3.4,1.3-5.3c0-6.2-5-11.2-11.2-11.2h-35.5c-4.1,0-7.7,2.2-9.7,5.6l-14.8,26.6l-7.3-12.7
	c-1.8-3-4-5.7-6.5-8.2c-4.7-4.5-10.4-7.9-16.8-9.8c-1.5-0.4-3-0.8-4.5-1c-1.7-0.3-5.9-0.5-6.4-0.5l-122.5,0c-6.2,0-11.2,5-11.2,11.2
	v23.5c0,6.2,5,11.2,11.2,11.2H573l-46.4,78.7h-25.1V58.6c0-6.2-5-11.2-11.2-11.2h-33.5c-6.2,0-11.2,5-11.2,11.2c0,0,0,119.9,0,120.2
	c0.1,6.7,1.9,13,5,18.5c3.6,6.5,9,11.9,15.5,15.5c5.7,3.2,12.3,5,19.3,5l176.3,0c0,0,0,0,0,0c4,0,7.6-2.1,9.5-5.3l15.4-26.8l43,74.8
	c1.8,3.1,5.1,5.3,8.9,5.5c0.2,0,36.2,0,36.2,0c6.2,0,11.2-5,11.2-11.2c0-1.9-0.5-3.7-1.4-5.3L717,132.6z M634.8,172.1h-45.8
	l31.6-53.4l14.7-25.1l21.8,39.1L634.8,172.1z"/>
<text transform="matrix(1 0 0 1 209.6101 428.2216)"><tspan x="0" y="0" class="st1 st2 st3">TECHNICAL </tspan><tspan x="90.7" y="182.2" class="st1 st2 st3">MANUAL</tspan></text>
</svg>
